<?xml version="1.0" encoding="UTF-8" standalone="no"?><!DOCTYPE svg PUBLIC "-//W3C//DTD SVG 1.1//EN" "http://www.w3.org/Graphics/SVG/1.1/DTD/svg11.dtd"><svg width="100%" height="100%" viewBox="0 0 217 217" version="1.1" xmlns="http://www.w3.org/2000/svg" xmlns:xlink="http://www.w3.org/1999/xlink" xml:space="preserve" xmlns:serif="http://www.serif.com/" style="fill-rule:evenodd;clip-rule:evenodd;stroke-linejoin:round;stroke-miterlimit:2;"><path d="M187.083,50c-2.083,-7.917 -26.25,-16.25 -26.25,-16.25c8.75,9.167 14.167,20.833 14.167,33.333c0,24.583 -20.417,45.417 -47.917,52.083c-12.083,-10.417 -10.833,-44.167 -10.833,-44.167c0,-6.25 -2.917,-9.615 -7.917,-9.615c-5,0 -7.917,3.365 -7.917,9.615c0,0 1.25,34.167 -10.833,44.583c-27.5,-7.083 -47.917,-27.5 -47.917,-52.5c0,-12.5 5.417,-24.167 14.167,-33.333c0,0 -25,7.917 -27.083,16.25c-2.083,8.333 -7.083,20.833 -5.417,34.167l0,-0.417l0,0.417c0,30 23.75,55.833 57.083,65c0,2.917 3.75,25.417 9.167,29.583l0,13.75c0,10.417 8.333,19.167 18.333,19.167c10,0 18.333,-8.75 18.333,-19.167l0,-13.75c5.833,-4.167 9.167,-26.667 9.167,-29.583c33.333,-9.167 57.083,-35 57.083,-65c1.667,-13.333 -3.333,-26.25 -5.417,-34.167Zm-68.75,138.333c0,6.667 -4.583,12.5 -10,12.5c-5.417,0 -10,-5.417 -10,-12.5c0,0 4.583,-37.083 10,-37.083c5.417,0 10,37.083 10,37.083Z" style="fill-rule:nonzero;"/></svg>