<?xml version="1.0" encoding="UTF-8" standalone="no"?><!DOCTYPE svg PUBLIC "-//W3C//DTD SVG 1.1//EN" "http://www.w3.org/Graphics/SVG/1.1/DTD/svg11.dtd"><svg width="100%" height="100%" viewBox="0 0 209 209" version="1.1" xmlns="http://www.w3.org/2000/svg" xmlns:xlink="http://www.w3.org/1999/xlink" xml:space="preserve" xmlns:serif="http://www.serif.com/" style="fill-rule:evenodd;clip-rule:evenodd;"><path id="path4783" d="M161.004,24.499c0,0 -64.782,1.984 -138.935,5.515c116.525,75.035 125.353,154.484 125.353,154.484c61.794,-70.621 13.582,-160 13.582,-160Z" style="fill:none;stroke:#000;stroke-width:4.17px;"/><path id="path4803" d="M159.275,22.46c-0.524,-0.794 -4.989,5.722 -9.685,3.826c-38.257,1.223 -76.577,1.225 -114.787,3.516c-3.422,-0.561 -6.558,3.388 -3.035,5.71c15.751,12.792 32.504,24.308 47.087,38.492c30.492,28.589 55.993,63.508 67.563,104.072c2.941,4.299 7.256,-1.214 8.993,-3.9c18.037,-25.636 24.568,-58.003 21.288,-88.904c-2.311,-21.656 -7.78,-43.248 -17.424,-62.812Zm-8.58,27.239c8.664,18.405 13.856,72.06 3.578,86.705c-9.686,-21.522 -50.868,-69.06 -68.411,-83.427c16.979,-1.803 47.745,-2.289 64.834,-3.277Z" style="fill-rule:nonzero;"/><path id="path4805" d="M29.209,30.081c-1.927,0.151 -2.572,2.686 -1.138,3.875c1.114,1.736 4.203,0.824 3.966,-1.288c-0.04,-1.39 -1.499,-2.552 -2.827,-2.587Z" style="fill-rule:nonzero;"/></svg>